HIERARCHY
ROOT Hips
{
	OFFSET 0.00000 0.00000 0.00000
	CHANNELS 6 Xposition Yposition Zposition Zrotation Yrotation Xrotation 
	JOINT LHipJoint
	{
		OFFSET 0 0 0
		CHANNELS 3 Zrotation Yrotation Xrotation
		JOINT LeftHip
		{
			OFFSET 1.62067 -1.77917 0.70989
			CHANNELS 3 Zrotation Yrotation Xrotation
			JOINT LeftKnee
			{
				OFFSET 2.34532 -6.44371 0.00000
				CHANNELS 3 Zrotation Yrotation Xrotation
				JOINT LeftAnkle
				{
					OFFSET 2.74224 -7.53425 0.00000
					CHANNELS 3 Zrotation Yrotation Xrotation
					JOINT LeftToe
					{
						OFFSET 0.17032 -0.46794 2.08086
						CHANNELS 3 Zrotation Yrotation Xrotation
						End Site
						{
							OFFSET 0.00000 -0.00000 1.07476
						}
					}
				}
			}
		}
	}
	JOINT RHipJoint
	{
		OFFSET 0 0 0
		CHANNELS 3 Zrotation Yrotation Xrotation
		JOINT RightHip
		{
			OFFSET -1.55811 -1.77917 0.70989
			CHANNELS 3 Zrotation Yrotation Xrotation
			JOINT RightKnee
			{
				OFFSET -2.33243 -6.40830 0.00000
				CHANNELS 3 Zrotation Yrotation Xrotation
				JOINT RightAnkle
				{
					OFFSET -2.78798 -7.65993 0.00000
					CHANNELS 3 Zrotation Yrotation Xrotation
					JOINT RightToe
					{
						OFFSET -0.22707 -0.62388 2.04059
						CHANNELS 3 Zrotation Yrotation Xrotation
						End Site
						{
							OFFSET -0.00000 -0.00000 1.07030
						}
					}
				}
			}
		}
	}
	JOINT lowerback
	{
		OFFSET 0 0 0
		CHANNELS 3 Zrotation Yrotation Xrotation
		JOINT Chest
		{
			OFFSET 0.02203 1.91565 0.07161
			CHANNELS 3 Zrotation Yrotation Xrotation
			JOINT Chest2
			{
				OFFSET 0.01740 1.90525 0.11636
				CHANNELS 3 Zrotation Yrotation Xrotation
				JOINT lowerneck
				{
					OFFSET 0 0 0
					CHANNELS 3 Zrotation Yrotation Xrotation
					JOINT Neck
					{
						OFFSET -0.10841 1.83566 0.05067
						CHANNELS 3 Zrotation Yrotation Xrotation
						JOINT Head
						{
							OFFSET 0.06601 1.74760 -0.50505
							CHANNELS 3 Zrotation Yrotation Xrotation
							End Site
							{
								OFFSET 0.03102 1.85215 -0.17697
							}
						}
					}
				}
				JOINT LeftCollar
				{
					OFFSET 0 0 0
					CHANNELS 3 Zrotation Yrotation Xrotation
					JOINT LeftShoulder
					{
						OFFSET 2.87059 1.35470 0.16111
CHANNELS 3 Zrotation Xrotation Yrotation
						JOINT LeftElbow
						{
OFFSET 0 -5.435920 0.000000
CHANNELS 3 Zrotation Xrotation Yrotation
							JOINT LeftWrist
							{
OFFSET 0 -3.254600 0.000000
CHANNELS 3 Zrotation Xrotation Yrotation
								JOINT lhand
								{
									OFFSET 0 0 0
CHANNELS 3 Zrotation Xrotation Yrotation
									JOINT LFingers
									{
OFFSET 0 -0.498240 0.000000
CHANNELS 3 Zrotation Xrotation Yrotation
										End Site
										{
OFFSET 0 -0.401700 0.000000
										}
									}
								}
								JOINT LThumb
								{
OFFSET 0 0.000000 0.000000
CHANNELS 3 Zrotation Xrotation Yrotation
									End Site
									{
OFFSET 0 -0.407830 0.407830
									}
								}
							}
						}
					}
				}
				JOINT RightCollar
				{
					OFFSET 0 0 0
					CHANNELS 3 Zrotation Yrotation Xrotation
					JOINT RightShoulder
					{
						OFFSET -2.86643 1.23488 0.45957
CHANNELS 3 Zrotation Xrotation Yrotation
						JOINT RightElbow
						{
OFFSET 0 -5.338300 0.000000
CHANNELS 3 Zrotation Xrotation Yrotation
							JOINT RightWrist
							{
OFFSET 0 -3.231480 0.000000
CHANNELS 3 Zrotation Xrotation Yrotation
								JOINT rhand
								{
									OFFSET 0 0 0
CHANNELS 3 Zrotation Xrotation Yrotation
									JOINT RFingers
									{
OFFSET 0 -0.463640 0.000000
CHANNELS 3 Zrotation Xrotation Yrotation
										End Site
										{
OFFSET 0 -0.373800 0.000000
										}
									}
								}
								JOINT RThumb
								{
OFFSET 0 0.000000 0.000000
CHANNELS 3 Zrotation Xrotation Yrotation
									End Site
									{
OFFSET 0 -0.379510 0.379510
									}
								}
							}
						}
					}
				}
			}
		}
	}
}
MOTION
Frames: 9
Frame Time: 0.008333333333333333
-0.036019 15.135139 -12.873040 -398.486097 7.464992 92.933980 0.000000 0.000000 0.000000 27.879918 7.884224 -106.293462 10.337513 17.595231 60.610488 3.195725 12.598827 -39.867329 0.000078 -0.036503 -0.100253 0.000000 0.000000 0.000000 51.030242 3.800156 -39.678629 -5.852669 -14.283761 44.386934 0.742736 -16.340049 -12.925280 -0.633133 5.083855 -14.149415 -9.299015 -2.819433 16.316017 -7.151017 -6.337250 -1.358785 -1.050647 -2.677798 -10.570105 1.275697 3.176043 -29.592651 12.899473 2.478095 2.774675 4.389270 2.435672 5.319494 0.000000 0.000000 0.000000 115.841673 -22.256729 20.885350 13.064801 -21.381944 2.476982 66.468114 -96.999976 29.019024 0.000000 0.000000 0.000000 -7.125000 0.000000 0.000000 19.318133 -21.810985 26.229548 0.000000 0.000000 0.000000 -109.473603 7.349798 -30.292479 -16.111097 -25.670845 -3.694027 -54.922593 52.721795 53.955562 0.000000 0.000000 0.000000 7.125000 0.000000 0.000000 -168.013738 -82.583234 -169.625671
-0.044541 15.170778 -12.976270 -398.754858 6.173497 92.398282 0.000000 0.000000 0.000000 27.093266 7.808640 -105.881371 10.401403 17.629443 60.821675 3.139509 12.805898 -39.733491 0.003031 -0.213116 -0.585616 0.000000 0.000000 0.000000 50.731047 4.524828 -39.771192 -5.755076 -14.186581 43.990269 0.747220 -16.475100 -13.163402 -0.618148 4.905272 -13.660677 -9.612733 -2.656747 16.608994 -7.344088 -6.245332 -1.284248 -1.099523 -2.621485 -10.654748 1.612554 3.190901 -29.145935 12.643102 2.451617 2.440536 4.222351 2.371263 5.153590 0.000000 0.000000 0.000000 115.290499 -20.861443 17.635407 13.258113 -21.663738 2.548172 64.516137 -94.452146 27.573278 0.000000 0.000000 0.000000 -7.125000 0.000000 0.000000 18.777942 -18.318073 24.820475 0.000000 0.000000 0.000000 -107.804547 7.484362 -30.291157 -16.003961 -25.526013 -3.647702 -54.459461 53.691625 54.328029 0.000000 0.000000 0.000000 7.125000 0.000000 0.000000 -170.286127 -82.591445 -171.556316
-0.054035 15.202164 -13.097183 -398.998097 4.928429 92.163204 0.000000 0.000000 0.000000 26.474576 7.825667 -105.675952 10.443538 17.651806 60.960792 3.032249 13.179231 -39.466086 0.015586 -0.793594 -2.181027 0.000000 0.000000 0.000000 50.204945 5.743846 -39.862054 -5.669393 -14.100035 43.639848 0.534033 -15.526234 -15.103270 -0.177179 2.652254 -7.316462 -9.788022 -2.515512 16.524724 -7.532481 -6.108020 -1.257413 -1.248605 -2.560676 -10.589779 1.407056 3.061436 -29.127025 13.040836 2.290294 2.536027 4.369785 2.321438 5.194784 0.000000 0.000000 0.000000 114.556232 -19.463605 14.309078 13.617322 -22.184896 2.681953 62.384895 -92.325376 27.002530 0.000000 0.000000 0.000000 -7.125000 0.000000 0.000000 17.839904 -15.793255 22.975391 0.000000 0.000000 0.000000 -106.159312 7.912070 -29.499062 -16.054335 -25.594356 -3.669436 -52.620969 51.653441 52.794448 0.000000 0.000000 0.000000 7.125000 0.000000 0.000000 -164.088012 -84.590475 -165.622861
-0.074350 15.245340 -13.202649 -399.485357 3.839922 91.873799 0.000000 0.000000 0.000000 26.167518 8.123132 -105.181961 10.479106 17.670586 61.078044 2.909019 13.593606 -39.152637 0.033065 -1.157138 -3.181457 0.000000 0.000000 0.000000 50.125172 6.698918 -39.887544 -5.576024 -14.004236 43.255026 0.650611 -16.145748 -14.394570 -0.197837 2.858333 -7.884851 -10.237257 -2.220998 16.476422 -7.529088 -5.808698 -1.264085 -1.073966 -2.399646 -10.541975 1.011117 2.900105 -29.201769 13.701696 2.099645 2.812258 4.640797 2.288031 5.312542 0.000000 0.000000 0.000000 113.503543 -18.022858 11.098044 14.298460 -23.157010 2.946178 60.590582 -90.501581 26.033288 0.000000 0.000000 0.000000 -7.125000 0.000000 0.000000 17.204467 -13.156202 21.533951 0.000000 0.000000 0.000000 -104.647281 8.266347 -29.031956 -16.151946 -25.726278 -3.711693 -54.048636 53.936979 54.015849 0.000000 0.000000 0.000000 7.125000 0.000000 0.000000 -169.243921 -83.017087 -170.562848
-0.074145 15.277338 -13.293836 -399.369878 2.982868 91.696694 0.000000 0.000000 0.000000 26.383384 7.636364 -104.872150 10.492783 17.677768 61.123032 2.761237 14.284773 -38.920168 0.040552 -1.299396 -3.572981 0.000000 0.000000 0.000000 50.148952 7.025750 -40.545830 -5.494310 -13.919534 42.916531 0.762231 -16.581156 -13.131465 -0.318430 3.579603 -9.901696 -10.041122 -2.201187 16.612755 -7.467358 -5.766217 -1.293981 -1.117003 -2.385345 -10.666847 0.762628 2.755398 -29.069137 14.290198 1.897453 3.037321 4.854833 2.233967 5.388425 0.000000 0.000000 0.000000 112.330628 -16.594927 7.703575 15.139077 -24.333306 3.286767 58.872640 -88.958818 24.510480 0.000000 0.000000 0.000000 -7.125000 0.000000 0.000000 16.762819 -9.909227 20.194028 0.000000 0.000000 0.000000 -103.221949 8.427745 -28.984408 -16.225390 -25.825318 -3.743644 -55.163750 55.627979 54.552790 0.000000 0.000000 0.000000 7.125000 0.000000 0.000000 -170.775027 -82.069324 -172.131701
-0.068568 15.310170 -13.369521 -399.009202 2.078460 91.373172 0.000000 0.000000 0.000000 26.653955 6.736576 -104.424393 10.493254 17.678011 61.124520 2.636882 14.967930 -38.803675 0.035853 -1.210937 -3.329492 0.000000 0.000000 0.000000 50.016321 6.919605 -41.279973 -5.415233 -13.836514 42.586828 0.813203 -16.615799 -11.976077 -0.410722 4.114107 -11.397871 -9.741521 -2.248770 16.957019 -7.414896 -5.817420 -1.280610 -1.195375 -2.417013 -10.869387 0.530360 2.607619 -28.897900 14.848149 1.688382 3.250394 5.054436 2.171867 5.457269 0.000000 0.000000 0.000000 111.025064 -15.466480 4.940957 15.873582 -25.347473 3.592558 57.099332 -87.174778 22.837347 0.000000 0.000000 0.000000 -7.125000 0.000000 0.000000 16.313876 -6.493472 18.792679 0.000000 0.000000 0.000000 -101.820709 8.497430 -29.135499 -16.301109 -25.927145 -3.776728 -55.362555 55.948272 54.031638 0.000000 0.000000 0.000000 7.125000 0.000000 0.000000 -167.585645 -82.295352 -169.275063
-0.071914 15.353931 -13.436000 -398.774027 0.921710 90.844364 0.000000 0.000000 0.000000 26.609318 5.902265 -103.706048 10.486114 17.674297 61.101009 2.564174 15.410646 -38.775989 0.020086 -0.877725 -2.412631 0.000000 0.000000 0.000000 49.566384 6.737391 -41.707178 -5.333075 -13.749284 42.242286 0.790096 -16.248170 -11.277661 -0.399697 4.057404 -11.238484 -9.804032 -2.180664 17.342201 -7.409868 -5.791554 -1.209937 -1.145639 -2.396117 -11.007575 0.214328 2.436615 -28.825833 15.386203 1.470826 3.483592 5.264426 2.107468 5.547538 0.000000 0.000000 0.000000 109.566216 -14.800228 3.346227 16.351866 -25.994712 3.799287 55.307753 -85.070893 21.469918 0.000000 0.000000 0.000000 -7.125000 0.000000 0.000000 15.739555 -3.534024 17.331518 0.000000 0.000000 0.000000 -100.398918 8.575992 -29.314636 -16.404931 -26.066531 -3.822183 -54.626158 54.984539 52.647014 0.000000 0.000000 0.000000 7.125000 0.000000 0.000000 -160.815038 -83.563754 -163.035128
-0.088469 15.406659 -13.531570 -398.899569 -0.393427 90.959236 0.000000 0.000000 0.000000 26.316490 5.833060 -103.506670 10.456454 17.658604 61.003164 2.491124 15.625637 -38.581633 0.002746 -0.195636 -0.537574 0.000000 0.000000 0.000000 48.928628 7.449375 -42.355605 -5.261594 -13.672389 41.940591 0.770480 -15.917365 -10.577055 -0.340143 3.745666 -10.362589 -10.189683 -2.009612 16.782124 -7.399432 -5.574993 -1.291697 -0.999460 -2.286581 -10.751233 -0.075283 2.226802 -28.793192 15.681542 1.216445 3.682499 5.384476 2.004602 5.633221 0.000000 0.000000 0.000000 107.903326 -14.322617 2.393124 16.851369 -26.660637 4.020870 54.240484 -84.521723 21.130090 0.000000 0.000000 0.000000 -7.125000 0.000000 0.000000 15.248056 -2.473582 16.477829 0.000000 0.000000 0.000000 -98.979659 8.728684 -29.623549 -16.548520 -26.258689 -3.885504 -54.474644 55.215145 52.099569 0.000000 0.000000 0.000000 7.125000 0.000000 0.000000 -157.091367 -83.960547 -159.549517
-0.088557 15.448341 -13.628813 -398.719843 -1.355563 91.021623 0.000000 0.000000 0.000000 26.577631 5.306889 -103.320013 10.403498 17.630526 60.828534 2.328368 16.344791 -38.344634 0.036953 0.982246 2.701820 0.000000 0.000000 0.000000 48.514936 7.872357 -43.187796 -5.184356 -13.588264 41.612855 0.745508 -15.510109 -9.671263 -0.317208 3.620102 -10.010270 -9.900463 -2.001638 16.380238 -7.347892 -5.450548 -1.337172 -1.145429 -2.253898 -10.593233 -0.228393 2.062512 -28.520286 15.634725 1.076005 3.498882 5.360929 1.903208 5.545583 0.000000 0.000000 0.000000 106.101794 -13.968587 1.868668 17.304478 -27.256135 4.226586 53.903183 -85.104323 21.837682 0.000000 0.000000 0.000000 -7.125000 0.000000 0.000000 14.866079 -3.237790 16.222292 0.000000 0.000000 0.000000 -97.115217 8.727134 -30.758495 -16.823053 -26.623298 -4.008004 -54.776012 57.070303 52.133408 0.000000 0.000000 0.000000 7.125000 0.000000 0.000000 -157.192994 -83.769497 -159.725793
